<svg width="22" height="20" viewBox="0 0 22 20" fill="none" xmlns="http://www.w3.org/2000/svg">
<path d="M13.121 8.48011C12.9335 8.29264 12.6792 8.18732 12.414 8.18732C12.1489 8.18732 11.8945 8.29264 11.707 8.48011L11 9.18611C10.8155 9.37713 10.5948 9.5295 10.3508 9.63431C10.1068 9.73913 9.84438 9.7943 9.57882 9.79661C9.31326 9.79892 9.04991 9.74832 8.80411 9.64775C8.55832 9.54719 8.33502 9.39869 8.14723 9.2109C7.95944 9.02312 7.81094 8.79981 7.71038 8.55402C7.60982 8.30823 7.55921 8.04487 7.56152 7.77931C7.56383 7.51375 7.619 7.25131 7.72382 7.0073C7.82864 6.76329 7.981 6.5426 8.17202 6.35811L13.802 0.726111C15.1349 0.422937 16.5295 0.547709 17.7875 1.08269C19.0454 1.61766 20.1027 2.53561 20.8089 3.706C21.5151 4.8764 21.8344 6.23966 21.7213 7.60194C21.6083 8.96422 21.0686 10.2562 20.179 11.2941L18.071 13.4291L13.121 8.47911V8.48011ZM2.16102 2.46811C3.19578 1.43349 4.54924 0.77809 6.00258 0.607877C7.45592 0.437664 8.9242 0.762586 10.17 1.53011L6.75702 4.94411C6.01782 5.68184 5.59645 6.67941 5.58296 7.72367C5.56946 8.76793 5.96491 9.77606 6.6848 10.5326C7.40469 11.2892 8.39193 11.7343 9.43557 11.7727C10.4792 11.811 11.4965 11.4398 12.27 10.7381L12.414 10.6011L16.657 14.8431L12.414 19.0861C12.039 19.4611 11.5303 19.6717 11 19.6717C10.4697 19.6717 9.96108 19.4611 9.58602 19.0861L2.16002 11.6601C0.941153 10.4411 0.256409 8.78792 0.256409 7.06411C0.256409 5.3403 0.941153 3.68708 2.16002 2.46811H2.16102Z" fill="#EA0774"/>
</svg>
