<svg width="14" height="14" viewBox="0 0 14 14" fill="none" xmlns="http://www.w3.org/2000/svg">
<path fill-rule="evenodd" clip-rule="evenodd" d="M0.577403 12.244C0.25197 12.5694 0.25197 13.0971 0.577403 13.4225C0.902845 13.7479 1.43048 13.7479 1.75592 13.4225L6.99999 8.17842L12.2441 13.4225C12.5695 13.7479 13.0972 13.7479 13.4226 13.4225C13.748 13.0971 13.748 12.5694 13.4226 12.244L8.17849 6.99992L13.4226 1.75584C13.748 1.4304 13.748 0.902769 13.4226 0.577327C13.0972 0.251894 12.5695 0.251894 12.2441 0.577327L6.99999 5.82142L1.75592 0.577327C1.43048 0.251894 0.902845 0.251894 0.577403 0.577327C0.25197 0.902769 0.25197 1.4304 0.577403 1.75584L5.82149 6.99992L0.577403 12.244Z" fill="#8C979A"/>
</svg>
