<svg width="22" height="20" viewBox="0 0 22 20" fill="none" xmlns="http://www.w3.org/2000/svg">
<path d="M5 17.9999H17V8.15692L11 2.70292L5 8.15692V17.9999ZM18 19.9999H4C3.73478 19.9999 3.48043 19.8946 3.29289 19.707C3.10536 19.5195 3 19.2651 3 18.9999V9.99992H0L10.327 0.61192C10.5111 0.444398 10.7511 0.351562 11 0.351562C11.2489 0.351563 11.4889 0.444398 11.673 0.61192L22 9.99992H19V18.9999C19 19.2651 18.8946 19.5195 18.7071 19.707C18.5196 19.8946 18.2652 19.9999 18 19.9999ZM6.5 11.9999H8.5C8.5 12.663 8.76339 13.2988 9.23223 13.7677C9.70107 14.2365 10.337 14.4999 11 14.4999C11.663 14.4999 12.2989 14.2365 12.7678 13.7677C13.2366 13.2988 13.5 12.663 13.5 11.9999H15.5C15.5 13.1934 15.0259 14.338 14.182 15.1819C13.3381 16.0258 12.1935 16.4999 11 16.4999C9.80653 16.4999 8.66193 16.0258 7.81802 15.1819C6.97411 14.338 6.5 13.1934 6.5 11.9999Z" fill="black"/>
</svg>
