<svg width="15" height="16" viewBox="0 0 15 16" fill="none" xmlns="http://www.w3.org/2000/svg">
<path d="M7.85157 11.4115C7.73764 11.4115 7.6316 11.3923 7.53345 11.3538C7.43528 11.3154 7.34196 11.2493 7.25349 11.1557L4.31395 8.04615C4.17337 7.89743 4.10399 7.7234 4.10582 7.52405C4.10763 7.3247 4.177 7.14746 4.31395 6.99232C4.4606 6.83721 4.62905 6.75708 4.81931 6.75195C5.00959 6.74682 5.17805 6.82182 5.3247 6.97695L7.14261 8.90003V1.25C7.14261 1.03718 7.21047 0.858984 7.3462 0.715401C7.48194 0.571801 7.65039 0.5 7.85157 0.5C8.05275 0.5 8.2212 0.571801 8.35693 0.715401C8.49266 0.858984 8.56053 1.03718 8.56053 1.25V8.90003L10.3784 6.97695C10.519 6.82823 10.686 6.75483 10.8793 6.75675C11.0726 6.75868 11.2425 6.83721 11.3892 6.99232C11.5261 7.14746 11.597 7.3231 11.6019 7.51925C11.6067 7.7154 11.5358 7.89103 11.3892 8.04615L8.44964 11.1557C8.36118 11.2493 8.26786 11.3154 8.16969 11.3538C8.07153 11.3923 7.96549 11.4115 7.85157 11.4115ZM2.47059 15.5C1.99308 15.5 1.5889 15.325 1.25804 14.975C0.927179 14.625 0.761749 14.1974 0.761749 13.6923V11.7307C0.761749 11.5179 0.829623 11.3397 0.965369 11.1961C1.1011 11.0525 1.26956 10.9808 1.47073 10.9808C1.67191 10.9808 1.84037 11.0525 1.9761 11.1961C2.11183 11.3397 2.17969 11.5179 2.17969 11.7307V13.6923C2.17969 13.7692 2.20999 13.8397 2.27059 13.9038C2.3312 13.9679 2.39786 14 2.47059 14H13.2325C13.3053 14 13.3719 13.9679 13.4325 13.9038C13.4931 13.8397 13.5234 13.7692 13.5234 13.6923V11.7307C13.5234 11.5179 13.5913 11.3397 13.727 11.1961C13.8628 11.0525 14.0312 10.9808 14.2324 10.9808C14.4336 10.9808 14.602 11.0525 14.7378 11.1961C14.8735 11.3397 14.9414 11.5179 14.9414 11.7307V13.6923C14.9414 14.1974 14.776 14.625 14.4451 14.975C14.1142 15.325 13.7101 15.5 13.2325 15.5H2.47059Z" fill="#1C1B1F"/>
</svg>
